<svg id="组_3" data-name="组 3" xmlns="http://www.w3.org/2000/svg" width="105.125" height="121.282" viewBox="0 0 105.125 121.282">
  <defs>
    <style>
      .cls-1 {
        fill: #abcd06;
      }

      .cls-1, .cls-2 {
        fill-rule: evenodd;
      }

      .cls-2 {
        fill: #005aa7;
      }
    </style>
  </defs>
  <g id="组_2" data-name="组 2">
    <path id="形状_1" data-name="形状 1" class="cls-1" d="M1,31H24s4.549,22.305,23,32L16,65l5-6S4.144,49.28,1,31Z" transform="translate(-0.875 -0.156)"/>
    <path id="形状_1_拷贝_2" data-name="形状 1 拷贝 2" class="cls-2" d="M52.132,121.432L41.309,101.138s17.54-14.51,17.412-35.353L75.074,92.2l-7.647-1.588S66.782,110.055,52.132,121.432Z" transform="translate(-0.875 -0.156)"/>
    <path id="形状_1_拷贝" data-name="形状 1 拷贝" class="cls-2" d="M0.871,90.611l11.365-20s21.639,7.067,39.186-4.183L37.842,94.371,35.1,87.06S18.318,96.911.871,90.611Z" transform="translate(-0.875 -0.156)"/>
  </g>
  <g id="组_2_拷贝" data-name="组 2 拷贝">
    <path id="形状_1-2" data-name="形状 1" class="cls-2" d="M105.63,89.888l-23,.306S77.787,67.951,59.208,58.5L90.178,56.09l-4.92,6.066S102.242,71.651,105.63,89.888Z" transform="translate(-0.875 -0.156)"/>
    <path id="形状_1_拷贝_2-2" data-name="形状 1 拷贝 2" class="cls-2" d="M53.3,0.145L64.39,20.293S47.045,35.035,47.451,55.875l-16.7-26.192,7.668,1.486S38.8,11.716,53.3.145Z" transform="translate(-0.875 -0.156)"/>
    <path id="形状_1_拷贝-2" data-name="形状 1 拷贝" class="cls-2" d="M104.965,30.28l-11.1,20.145s-21.731-6.779-39.126,4.7L67.947,27.013l2.843,7.275S87.436,24.214,104.965,30.28Z" transform="translate(-0.875 -0.156)"/>
  </g>
  <path id="SSI" class="cls-2" d="M91.453,96.611a5.708,5.708,0,0,0-2.788-.63c-2.737,0-4.772,1.638-5.156,3.817-0.33,1.873.837,3.115,2.744,3.944,1.518,0.684,2.093,1.4,1.887,2.574a2.675,2.675,0,0,1-2.925,2.089,5.254,5.254,0,0,1-2.846-.81l-0.776,1.746a5.9,5.9,0,0,0,3.185.828c3.1,0,5.112-1.728,5.518-4.033,0.333-1.89-.517-3.1-2.56-4.069-1.613-.756-2.286-1.332-2.08-2.5A2.451,2.451,0,0,1,88.3,97.728a4.465,4.465,0,0,1,2.341.612Zm9.7,0a5.712,5.712,0,0,0-2.788-.63c-2.737,0-4.772,1.638-5.156,3.817-0.33,1.873.837,3.115,2.744,3.944,1.518,0.684,2.093,1.4,1.887,2.574a2.675,2.675,0,0,1-2.925,2.089,5.255,5.255,0,0,1-2.846-.81l-0.776,1.746a5.9,5.9,0,0,0,3.185.828c3.1,0,5.112-1.728,5.518-4.033,0.333-1.89-.516-3.1-2.56-4.069-1.613-.756-2.286-1.332-2.08-2.5A2.451,2.451,0,0,1,98,97.728a4.467,4.467,0,0,1,2.341.612Zm0.4,13.36h2.089L106.068,96.2h-2.089Z" transform="translate(-0.875 -0.156)"/>
</svg>
